<?xml version="1.0" encoding="utf-8"?>
<!-- Generator: Adobe Illustrator 21.0.2, SVG Export Plug-In . SVG Version: 6.00 Build 0)  -->
<svg version="1.1" id="Layer_1" xmlns="http://www.w3.org/2000/svg" xmlns:xlink="http://www.w3.org/1999/xlink" x="0px" y="0px"
	 viewBox="0 0 122 50" style="enable-background:new 0 0 122 50;" xml:space="preserve">
<style type="text/css">
	.logo_fill{fill:#e72557;}
</style>
<path id="logo_fill" class="logo_fill" d="M58,12.4c-3.6,3.6-9.4,3.5-13-0.1l-3.4-3.5c-9.1-9.3-24.2-10-33.6-1c-9.6,9.2-9.7,24.4-0.3,33.8
	c9.2,9.2,24.3,8.8,33.6-0.3l3.5-3.4c3.6-3.6,9.4-3.5,13,0.1c7.3,7.4,19.3,8,26.7,0.7c7.5-7.2,7.6-19.2,0.3-26.5
	C77.4,4.8,65.4,5.1,58,12.4z"/>
<ellipse id="logo_fill" transform="matrix(0.7071 -0.7071 0.7071 0.7071 12.6305 83.6856)" class="logo_fill" cx="107.3" cy="26.6" rx="13.1" ry="13.1"/>
</svg>
