<?xml version="1.0" encoding="utf-8"?>
<!-- Generator: Adobe Illustrator 21.0.2, SVG Export Plug-In . SVG Version: 6.00 Build 0)  -->
<svg version="1.1" id="Layer_1" xmlns="http://www.w3.org/2000/svg" xmlns:xlink="http://www.w3.org/1999/xlink" x="0px" y="0px"
	 viewBox="0 0 160 50" style="enable-background:new 0 0 160 50;" xml:space="preserve">
<style type="text/css">
	.st0{fill:#fff;}
	.st1{fill:#fcfcf1;}
</style>
<g>
	<path class="st0" d="M3.7,28.5C3.9,28,4.5,27.8,5,28.1l1.9,0.9c0.8,0.4,1.4,0.5,1.8,0.3c0.4-0.2,0.7-0.5,1-1.1l7.7-16.4
		c0.2-0.5,0.8-0.7,1.3-0.5l6.5,3c0.5,0.2,0.7,0.8,0.5,1.3l-8.3,17.8c-1.1,2.3-2.4,3.7-3.9,4.2c-1.5,0.5-3.4,0.1-5.7-0.9L2.2,34
		c-0.5-0.2-0.7-0.8-0.5-1.3L3.7,28.5z M8.7,33.5c1.2,0.6,2.2,0.7,3,0.4c0.7-0.3,1.4-1,1.9-2.1L21,16l-1-0.5l-7.4,15.8
		c-0.4,0.8-0.8,1.3-1.2,1.5c-0.5,0.3-1.2,0.2-2.2-0.3l-3-1.4L5.7,32L8.7,33.5z"/>
</g>
<path class="st1" d="M46.4,31.7l0.5,4.8H31.1V13.8h14.3l0.5,4.8h-9.1v4.1h6.6l0.5,4.8h-7.2v4.2H46.4z"/>
<path class="st1" d="M55.9,29.6v6.8h-5.8V13.8h5.8v7.9l8.7-8.4l4.5,3.4l-7.3,7.2l8.7,12.5h-7.3L57.5,28L55.9,29.6z"/>
<path class="st1" d="M83.7,27.6v8.9h-5.8v-8.9L71,14.9l5.5-1.6l4.2,8.6l4.5-8.2h5.9L83.7,27.6z"/>
<path class="st1" d="M99.4,29.8v6.6h-5.8V13.8h9.1c1.7,0,3.1,0.3,4.5,0.9c1.3,0.6,2.4,1.5,3.2,2.8c0.8,1.2,1.2,2.7,1.2,4.5
	c0,1.7-0.4,3.2-1.3,4.4c-0.8,1.2-2,2.1-3.4,2.6c-1.4,0.6-2.9,0.9-4.5,0.9H99.4z M102.6,18.5h-3.1v6.5h3.2c0.9,0,1.6-0.3,2.2-0.9
	c0.6-0.6,0.9-1.3,0.9-2.2c0-1-0.3-1.8-0.8-2.5C104.3,18.9,103.5,18.5,102.6,18.5z"/>
<path class="st1" d="M124.4,13.3c2.3,0,4.3,0.5,6,1.5c1.7,1,3,2.4,3.9,4.2c0.9,1.8,1.3,3.8,1.3,5.9c0,2.3-0.5,4.4-1.4,6.2
	c-0.9,1.8-2.3,3.2-4,4.2c-1.7,1-3.6,1.5-5.8,1.5c-2.2,0-4.2-0.5-5.9-1.5c-1.7-1-3-2.4-3.9-4.2c-0.9-1.8-1.4-3.8-1.4-5.9
	c0-2.3,0.5-4.3,1.4-6.1c1-1.8,2.3-3.2,4-4.2C120.3,13.8,122.2,13.3,124.4,13.3z M119.2,25.2c0,2,0.5,3.6,1.4,4.8
	c0.9,1.2,2.2,1.9,3.8,1.9c1.5,0,2.8-0.6,3.8-1.8c1-1.2,1.5-2.9,1.5-5.1c0-1.9-0.5-3.5-1.4-4.7c-0.9-1.2-2.2-1.8-3.8-1.8
	c-1,0-1.9,0.3-2.7,0.8c-0.8,0.6-1.4,1.4-1.9,2.4C119.4,22.7,119.2,23.8,119.2,25.2z"/>
<polygon class="st0" points="137.3,36.3 146.5,12.6 153.5,23.5 "/>
</svg>
