<?xml version="1.0" encoding="utf-8"?>
<!-- Generator: Adobe Illustrator 21.0.2, SVG Export Plug-In . SVG Version: 6.00 Build 0)  -->
<svg version="1.1" id="Layer_1" xmlns="http://www.w3.org/2000/svg" xmlns:xlink="http://www.w3.org/1999/xlink" x="0px" y="0px"
	 viewBox="0 0 160 50" style="enable-background:new 0 0 160 50;" xml:space="preserve">
<style type="text/css">
	.st0{fill:#e58965;}
	.st1{fill:#fff;}
	.st2{fill-rule:evenodd;clip-rule:evenodd;fill:#fff;}
</style>
<g>
	<path class="st0" d="M45.5,29.9v5.5h-5.1V16.5h8c1.4,0,2.8,0.3,3.9,0.8c1.2,0.5,2.1,1.3,2.8,2.3c0.7,1,1,2.3,1,3.7
		c0,1.4-0.4,2.7-1.1,3.7c-0.7,1-1.7,1.7-2.9,2.2c-1.2,0.5-2.5,0.7-4,0.7H45.5z M48.2,20.5h-2.7V26h2.8c0.8,0,1.4-0.3,1.9-0.8
		c0.5-0.5,0.8-1.1,0.8-1.9c0-0.9-0.2-1.5-0.7-2.1C49.7,20.8,49,20.5,48.2,20.5z"/>
	<path class="st0" d="M71.5,32.6c-0.7,1.1-1.6,1.9-2.8,2.4c-1.2,0.5-2.5,0.8-4,0.8c-2.3,0-4.1-0.6-5.5-1.8c-1.4-1.2-2.1-3-2.1-5.3
		c0-1.5,0.3-2.7,1-3.8c0.7-1.1,1.6-1.9,2.8-2.5c1.2-0.6,2.5-0.8,3.9-0.8c1.5,0,2.8,0.3,4,0.8c1.1,0.6,2,1.4,2.7,2.5
		c0.6,1.1,1,2.4,1,4C72.5,30.2,72.2,31.5,71.5,32.6z M66.7,30.9c0.4-0.5,0.6-1.2,0.6-2.1c0-0.9-0.2-1.7-0.6-2.3
		c-0.4-0.6-1-0.9-1.7-0.9c-0.8,0-1.4,0.3-1.8,0.8c-0.4,0.5-0.7,1.3-0.7,2.2c0,0.9,0.2,1.7,0.6,2.2c0.4,0.5,1,0.8,1.8,0.8
		C65.6,31.6,66.2,31.4,66.7,30.9z"/>
	<path class="st0" d="M79.6,27.5v7.9h-5.1V22H77l1.2,1.6c0.6-0.4,1.4-0.8,2.2-1.2c0.8-0.3,1.6-0.5,2.3-0.5l1,4.1
		c-0.7,0-1.4,0.1-2.2,0.4C80.8,26.7,80.1,27.1,79.6,27.5z"/>
	<path class="st0" d="M91.5,22.5h3.5l0.5,4h-4v3.3c0,0.6,0.1,1,0.4,1.3c0.3,0.3,0.7,0.5,1.2,0.5c0.7,0,1.3-0.2,1.9-0.5l1.4,3.4
		c-0.4,0.3-0.9,0.6-1.7,0.8c-0.8,0.3-1.4,0.4-2.1,0.4c-1.1,0-2.2-0.2-3.1-0.6c-1-0.4-1.7-1-2.3-1.8c-0.6-0.8-0.9-1.8-0.9-2.9v-3.9
		h-2.1v-4h2.1v-3.6l5.1-0.7V22.5z"/>
	<path class="st0" d="M99.3,26.5h-2.2v-4h2.2v-1.3c0-1.1,0.3-2.1,0.9-2.9c0.6-0.8,1.4-1.4,2.3-1.8c1-0.4,2-0.6,3.1-0.6
		c0.6,0,1.3,0.1,2.1,0.4c0.8,0.3,1.3,0.5,1.7,0.8l-1.4,3.4c-0.6-0.4-1.3-0.5-1.9-0.5c-0.5,0-0.9,0.2-1.2,0.5
		c-0.3,0.3-0.4,0.8-0.4,1.3v0.7h3.7l0.5,4h-4.2v9h-5.1V26.5z"/>
	<path class="st0" d="M124.2,32.6c-0.7,1.1-1.6,1.9-2.8,2.4c-1.2,0.5-2.5,0.8-4,0.8c-2.3,0-4.1-0.6-5.5-1.8c-1.4-1.2-2.1-3-2.1-5.3
		c0-1.5,0.3-2.7,1-3.8c0.7-1.1,1.6-1.9,2.8-2.5c1.2-0.6,2.5-0.8,3.9-0.8c1.5,0,2.8,0.3,4,0.8c1.2,0.6,2,1.4,2.7,2.5
		c0.6,1.1,1,2.4,1,4C125.2,30.2,124.8,31.5,124.2,32.6z M119.3,30.9c0.4-0.5,0.6-1.2,0.6-2.1c0-0.9-0.2-1.7-0.6-2.3
		c-0.4-0.6-1-0.9-1.7-0.9c-0.8,0-1.4,0.3-1.8,0.8c-0.4,0.5-0.7,1.3-0.7,2.2c0,0.9,0.2,1.7,0.6,2.2c0.4,0.5,1,0.8,1.8,0.8
		C118.3,31.6,118.9,31.4,119.3,30.9z"/>
	<path class="st0" d="M132.5,15.8v19.6h-5.1V16.1L132.5,15.8z"/>
	<path class="st0" d="M138,20.1c-0.7,0-1.4-0.3-1.9-0.8c-0.5-0.5-0.8-1.2-0.8-1.9c0-0.8,0.3-1.4,0.8-2c0.5-0.5,1.2-0.8,1.9-0.8
		c0.8,0,1.4,0.3,2,0.8c0.5,0.5,0.8,1.2,0.8,2c0,0.7-0.3,1.4-0.8,1.9C139.4,19.9,138.8,20.1,138,20.1z M140.6,22v13.5h-5.1V22H140.6z
		"/>
	<path class="st1" d="M156.8,32.6c-0.7,1.1-1.6,1.9-2.8,2.4c-1.2,0.5-2.5,0.8-4,0.8c-2.3,0-4.1-0.6-5.5-1.8c-1.4-1.2-2.1-3-2.1-5.3
		c0-1.5,0.3-2.7,1-3.8c0.7-1.1,1.6-1.9,2.8-2.5c1.2-0.6,2.5-0.8,3.9-0.8c1.5,0,2.8,0.3,4,0.8s2,1.4,2.7,2.5c0.6,1.1,1,2.4,1,4
		C157.8,30.2,157.5,31.5,156.8,32.6z M152,30.9c0.4-0.5,0.6-1.2,0.6-2.1c0-0.9-0.2-1.7-0.6-2.3c-0.4-0.6-1-0.9-1.7-0.9
		c-0.8,0-1.4,0.3-1.8,0.8c-0.4,0.5-0.7,1.3-0.7,2.2c0,0.9,0.2,1.7,0.6,2.2c0.4,0.5,1,0.8,1.8,0.8C150.9,31.6,151.5,31.4,152,30.9z"
		/>
</g>
<path class="st2" d="M37.1,27.2H25.8c-1,0-0.3,1.5,0.3,1.5h10.7c1,0,0.6,1.3-0.5,1.3h-7.2c-1.5,0,0.2,1.3,2,1.3h5
	c1.2,0,0.4,1.4-0.8,1.4H4.9c-1.1,0-2-1.4-0.8-1.4h5c1.7,0,3.4-1.3,2-1.3H3.8c-1,0-1.5-1.3-0.5-1.3h10.8c0.6,0,1.3-1.5,0.3-1.5H2.4
	c-0.7,0,0.1-1.2,0.8-1.2h12.6c0.6,0,1.2-1.6,0.3-1.6H2.4c-0.7,0,0.1-1.1,0.7-1.1h13.6c0.6,0,1.1-1.7,0.2-1.7H2.9
	c-0.7,0,0.1-0.9,0.7-0.9h14.1c0.6,0,1.2-1.8,0.2-1.8h-14c-0.7,0,0-0.8,0.6-0.8h14c0.6,0,1.2-1.9,0.3-1.9H5.3c-0.6,0-0.1-0.7,0.4-0.7
	h13.3c0.6,0,1.2-2.1,0.3-2.1H7.9c-0.4,0-0.3-0.6,0.1-0.6h24.2c0.4,0,0.5,0.6,0.1,0.6H20.9c-1,0-0.4,2.1,0.3,2.1h13.3
	c0.6,0,1,0.7,0.4,0.7H21.6c-0.9,0-0.4,1.9,0.3,1.9h13.9c0.6,0,1.3,0.8,0.6,0.8h-14c-0.9,0-0.4,1.8,0.2,1.8h14c0.6,0,1.4,0.9,0.7,0.9
	H23.3c-0.9,0-0.4,1.7,0.2,1.7h13.6c0.6,0,1.4,1.1,0.7,1.1H24.3c-0.9,0-0.4,1.6,0.3,1.6h13.3C38.6,26,37.8,27.2,37.1,27.2L37.1,27.2z
	 M34.1,35.5H6.1c-1.2,0-2.2-1.5-0.9-1.5h29.9C36.4,33.9,35.3,35.5,34.1,35.5L34.1,35.5z M32.2,38.2H8c-1.3,0-2.4-1.7-1.1-1.7h26.2
	C34.5,36.6,33.4,38.2,32.2,38.2L32.2,38.2z M29,41H11.2c-1.1,0-2.8-1.8-1.3-1.8h20.4C31.9,39.2,30.1,41,29,41L29,41z M20.1,43.7
	c-4.8,0-5.9-1.8-4.7-1.8h9.5C26.1,41.9,24.9,43.7,20.1,43.7L20.1,43.7z M11.3,10.2h17.6c1.1,0,1,0.5,0.8,0.5H10.5
	C10.3,10.6,10.3,10.2,11.3,10.2L11.3,10.2z M19,7.6c0.4,0,0.8,0,1.2,0c0.4,0,0.8,0,1.2,0c0.1,0,0.1,0.1,0.1,0.1
	c0,0.1-0.1,0.1-0.1,0.1H19c-0.1,0-0.1-0.1-0.1-0.1C18.8,7.7,18.9,7.6,19,7.6z"/>
</svg>
